<svg width="150" height="150" viewBox="0 0 150 150" fill="none" xmlns="http://www.w3.org/2000/svg">
<g clip-path="url(#clip0_11_94)">
<path d="M98.625 114.444V122.333C98.625 128.61 96.1359 134.63 91.7054 139.068C87.2749 143.507 81.2657 146 75 146C68.7343 146 62.7251 143.507 58.2946 139.068C53.8641 134.63 51.375 128.61 51.375 122.333V114.444M98.625 114.444H51.375M98.625 114.444H126.896C129.912 114.444 131.424 114.444 132.645 114.034C133.793 113.645 134.836 112.995 135.692 112.136C136.549 111.277 137.196 110.231 137.583 109.08C138 107.849 138 106.335 138 103.29C138 101.956 138 101.294 137.89 100.655C137.695 99.4602 137.229 98.3265 136.527 97.3413C136.149 96.8128 135.677 96.3394 134.74 95.4007L131.668 92.324C131.179 91.8328 130.79 91.2498 130.525 90.6082C130.261 89.9665 130.125 89.279 130.125 88.5847V59.2222C130.125 51.9703 128.699 44.7895 125.929 38.0896C123.159 31.3897 119.098 25.3021 113.979 20.1742C108.86 15.0464 102.783 10.9787 96.0954 8.20354C89.4074 5.42836 82.2391 4 75 4C67.7609 4 60.5926 5.42836 53.9046 8.20354C47.2165 10.9787 41.1396 15.0464 36.0207 20.1742C30.9019 25.3021 26.8414 31.3897 24.0711 38.0896C21.3008 44.7895 19.875 51.9703 19.875 59.2222V88.5847C19.8755 89.279 19.7394 89.9665 19.4746 90.6082C19.2098 91.2498 18.8213 91.8328 18.3315 92.324L15.2603 95.4007C14.3153 96.3473 13.8506 96.8128 13.4805 97.3334C12.772 98.3194 12.3003 99.4561 12.1024 100.655C12 101.286 12 101.956 12 103.29C12 106.335 12 107.849 12.4095 109.08C12.798 110.232 13.4472 111.279 14.3065 112.139C15.1658 112.998 16.2118 113.647 17.3629 114.034C18.5835 114.444 20.0876 114.444 23.1037 114.444H51.375" stroke="#9E9E9E" stroke-width="9" stroke-linecap="round" stroke-linejoin="round"/>
</g>
<defs>
<clipPath id="clip0_11_94">
<rect width="150" height="150" fill="white"/>
</clipPath>
</defs>
</svg>
