<svg width="150" height="150" viewBox="0 0 150 150" fill="none" xmlns="http://www.w3.org/2000/svg">
<g clip-path="url(#clip0_11_96)">
<path d="M131.275 86.9324H101.741C97.8263 86.9284 94.0696 88.4771 91.295 91.2389C88.5203 94.0007 86.9542 97.7501 86.9401 101.665V131.199C86.938 133.143 87.3195 135.069 88.0626 136.865C88.8057 138.662 89.8959 140.294 91.2707 141.669C92.6456 143.044 94.278 144.134 96.0747 144.877C97.8714 145.621 99.7969 146.002 101.741 146H131.275C135.189 145.984 138.936 144.417 141.696 141.642C144.456 138.868 146.004 135.112 146 131.199V101.665C146.002 99.7307 145.622 97.8151 144.883 96.0276C144.144 94.2402 143.059 92.6162 141.692 91.2484C140.324 89.8807 138.7 88.7961 136.912 88.0568C135.125 87.3175 133.209 86.938 131.275 86.9401M49.2588 86.9324H19.725C15.812 86.9546 12.0668 88.5246 9.30772 91.2994C6.54864 94.0741 4.99995 97.8282 5.00001 101.741V131.275C4.998 133.209 5.37751 135.125 6.11679 136.912C6.85608 138.7 7.94064 140.324 9.30838 141.692C10.6761 143.059 12.3002 144.144 14.0876 144.883C15.875 145.622 17.7907 146.002 19.725 146H49.2588C53.1723 146.004 56.9279 144.456 59.7023 141.696C62.4768 138.936 64.0438 135.189 64.0599 131.275V101.741C64.0619 99.7969 63.6805 97.8714 62.9374 96.0747C62.1942 94.278 61.1041 92.6456 59.7292 91.2707C58.3544 89.8959 56.722 88.8057 54.9253 88.0626C53.1286 87.3195 51.203 86.938 49.2588 86.9401M49.2588 5.00001H19.725C17.7907 4.998 15.875 5.37751 14.0876 6.11679C12.3002 6.85608 10.6761 7.94064 9.30838 9.30838C7.94064 10.6761 6.85608 12.3002 6.11679 14.0876C5.37751 15.875 4.998 17.7907 5.00001 19.725V49.2588C4.99594 53.1723 6.54359 56.9279 9.30375 59.7023C12.0639 62.4768 15.8114 64.0438 19.725 64.0599H49.2588C51.203 64.0619 53.1286 63.6805 54.9253 62.9374C56.722 62.1942 58.3544 61.1041 59.7292 59.7292C61.1041 58.3544 62.1942 56.722 62.9374 54.9253C63.6805 53.1286 64.0619 51.203 64.0599 49.2588V19.725C64.0438 15.8114 62.4768 12.0639 59.7023 9.30375C56.9279 6.54359 53.1723 4.99594 49.2588 5.00001ZM131.275 5.00001H101.741C97.8277 4.99594 94.0721 6.54359 91.2976 9.30375C88.5232 12.0639 86.9562 15.8114 86.9401 19.725V49.2588C86.9421 53.1837 88.5021 56.9472 91.2774 59.7225C94.0528 62.4979 97.8163 64.0579 101.741 64.0599H131.275C135.189 64.0438 138.936 62.4768 141.696 59.7023C144.456 56.9279 146.004 53.1723 146 49.2588V19.725C146.002 17.7907 145.622 15.875 144.883 14.0876C144.144 12.3002 143.059 10.6761 141.692 9.30838C140.324 7.94064 138.7 6.85608 136.912 6.11679C135.125 5.37751 133.209 4.998 131.275 5.00001Z" stroke="#9E9E9E" stroke-width="9" stroke-linecap="round" stroke-linejoin="round"/>
</g>
<defs>
<clipPath id="clip0_11_96">
<rect width="150" height="150" fill="white"/>
</clipPath>
</defs>
</svg>
