<svg width="150" height="150" viewBox="0 0 150 150" fill="none" xmlns="http://www.w3.org/2000/svg">
<path fill-rule="evenodd" clip-rule="evenodd" d="M127.349 1C121.608 1 116.102 3.28039 112.042 7.33958L112.04 7.34135L101.396 17.9475C101.07 18.138 100.763 18.3728 100.484 18.6521C100.209 18.9273 99.9768 19.2294 99.7877 19.5498L43.3237 75.8126C42.4763 76.6569 42 77.804 42 79.0002V103.5C42 105.985 44.0147 108 46.5 108H70.9998C72.196 108 73.3431 107.524 74.1874 106.676L130.45 50.2122C130.771 50.0232 131.073 49.7911 131.348 49.5158C131.627 49.2366 131.862 48.9298 132.052 48.6042L142.659 37.9601L142.661 37.9575C146.72 33.8974 149 28.3916 149 22.6507C149 16.9086 146.719 11.4016 142.659 7.34135C138.598 3.28105 133.091 1 127.349 1ZM51 80.8689L103.763 28.2944L121.706 46.2374L69.1311 99H51V80.8689ZM110.138 21.9418L128.058 39.8621L136.289 31.6018L136.295 31.5961C138.667 29.2237 140 26.0059 140 22.6507C140 19.2955 138.667 16.0778 136.295 13.7053C133.922 11.3328 130.704 10 127.349 10C123.994 10 120.776 11.3328 118.404 13.7053L118.398 13.711L110.138 21.9418ZM21.8077 34C16.2891 34 10.9966 36.1922 7.09443 40.0944C3.19223 43.9966 1 49.2892 1 54.8077V128.192C1 133.711 3.19223 139.003 7.09443 142.906C10.9966 146.808 16.2891 149 21.8077 149H95.1923C100.711 149 106.003 146.808 109.906 142.906C113.808 139.003 116 133.711 116 128.192V120.038C116 117.553 113.985 115.538 111.5 115.538C109.015 115.538 107 117.553 107 120.038V128.192C107 131.324 105.756 134.327 103.542 136.542C101.327 138.756 98.3239 140 95.1923 140H21.8077C18.6761 140 15.6728 138.756 13.4584 136.542C11.244 134.327 10 131.324 10 128.192V54.8077C10 51.6761 11.244 48.6728 13.4584 46.4584C15.6728 44.244 18.6761 43 21.8077 43H29.9615C32.4468 43 34.4615 40.9853 34.4615 38.5C34.4615 36.0147 32.4468 34 29.9615 34H21.8077Z" fill="#9E9E9E"/>
</svg>
