<svg width="200" height="200" viewBox="0 0 200 200" fill="none" xmlns="http://www.w3.org/2000/svg">
<rect x="1" width="199" height="199" rx="25" fill="white" fill-opacity="0.4"/>
<path d="M100.333 144C140.835 144 173.667 100 173.667 100C173.667 100 140.835 56 100.333 56C59.8313 56 27 100 27 100C27 100 59.8313 144 100.333 144Z" stroke="white" stroke-width="9" stroke-linejoin="round"/>
<path d="M100.333 118.333C105.196 118.333 109.859 116.402 113.297 112.964C116.735 109.525 118.667 104.862 118.667 99.9999C118.667 95.1376 116.735 90.4744 113.297 87.0363C109.859 83.5981 105.196 81.6666 100.333 81.6666C95.471 81.6666 90.8079 83.5981 87.3697 87.0363C83.9315 90.4744 82 95.1376 82 99.9999C82 104.862 83.9315 109.525 87.3697 112.964C90.8079 116.402 95.471 118.333 100.333 118.333Z" stroke="white" stroke-width="9" stroke-linejoin="round"/>
</svg>
