<svg width="200" height="200" viewBox="0 0 200 200" fill="none" xmlns="http://www.w3.org/2000/svg">
<rect x="1" width="199" height="199" rx="25" fill="white" fill-opacity="0.4"/>
<path fill-rule="evenodd" clip-rule="evenodd" d="M169.296 64.5929C175.535 64.5929 180.593 59.5353 180.593 53.2965C180.593 47.0576 175.535 42 169.296 42C163.058 42 158 47.0576 158 53.2965C158 59.5353 163.058 64.5929 169.296 64.5929ZM122.296 138.593C128.535 138.593 133.593 133.535 133.593 127.296C133.593 121.058 128.535 116 122.296 116C116.058 116 111 121.058 111 127.296C111 133.535 116.058 138.593 122.296 138.593ZM82.5929 80.2965C82.5929 86.5353 77.5353 91.5929 71.2965 91.5929C65.0576 91.5929 60 86.5353 60 80.2965C60 74.0576 65.0576 69 71.2965 69C77.5353 69 82.5929 74.0576 82.5929 80.2965ZM30.2965 157C36.5353 157 41.5929 151.942 41.5929 145.704C41.5929 139.465 36.5353 134.407 30.2965 134.407C24.0576 134.407 19 139.465 19 145.704C19 151.942 24.0576 157 30.2965 157Z" fill="white"/>
<path d="M30 146L71 79L123 128.5L169.5 53.5" stroke="white" stroke-width="9"/>
</svg>
