<svg width="150" height="150" viewBox="0 0 150 150" fill="none" xmlns="http://www.w3.org/2000/svg">
<path d="M9.5 24C7.77609 24 6.12279 24.6848 4.90381 25.9038C3.68482 27.1228 3 28.7761 3 30.5C3 32.2239 3.68482 33.8772 4.90381 35.0962C6.12279 36.3152 7.77609 37 9.5 37H141.5C143.224 37 144.877 36.3152 146.096 35.0962C147.315 33.8772 148 32.2239 148 30.5C148 28.7761 147.315 27.1228 146.096 25.9038C144.877 24.6848 143.224 24 141.5 24H9.5ZM4.90381 69.9038C3.68482 71.1228 3 72.7761 3 74.5C3 76.2239 3.68482 77.8772 4.90381 79.0962C6.12279 80.3152 7.77609 81 9.5 81H141.5C143.224 81 144.877 80.3152 146.096 79.0962C147.315 77.8772 148 76.2239 148 74.5C148 72.7761 147.315 71.1228 146.096 69.9038C144.877 68.6848 143.224 68 141.5 68H9.5C7.77609 68 6.12279 68.6848 4.90381 69.9038ZM4.90381 113.904C3.68482 115.123 3 116.776 3 118.5C3 120.224 3.68482 121.877 4.90381 123.096C6.12279 124.315 7.77609 125 9.5 125H141.5C143.224 125 144.877 124.315 146.096 123.096C147.315 121.877 148 120.224 148 118.5C148 116.776 147.315 115.123 146.096 113.904C144.877 112.685 143.224 112 141.5 112H9.5C7.77609 112 6.12279 112.685 4.90381 113.904Z" fill="#9E9E9E" stroke="#9E9E9E" stroke-width="2"/>
</svg>
