<svg width="150" height="150" viewBox="0 0 150 150" fill="none" xmlns="http://www.w3.org/2000/svg">
<path fill-rule="evenodd" clip-rule="evenodd" d="M75.1783 49.0261C68.3559 49.0261 61.8129 51.7363 56.9887 56.5605C52.1645 61.3847 49.4543 67.9276 49.4543 74.7501C49.4543 81.5725 52.1645 88.1155 56.9887 92.9396C61.8129 97.7638 68.3559 100.474 75.1783 100.474C82.0007 100.474 88.5437 97.7638 93.3678 92.9396C98.192 88.1155 100.902 81.5725 100.902 74.7501C100.902 67.9276 98.192 61.3847 93.3678 56.5605C88.5437 51.7363 82.0007 49.0261 75.1783 49.0261ZM59.7439 74.7501C59.7439 70.6566 61.37 66.7308 64.2645 63.8363C67.159 60.9418 71.0848 59.3157 75.1783 59.3157C79.2717 59.3157 83.1975 60.9418 86.092 63.8363C88.9865 66.7308 90.6126 70.6566 90.6126 74.7501C90.6126 78.8435 88.9865 82.7693 86.092 85.6638C83.1975 88.5583 79.2717 90.1844 75.1783 90.1844C71.0848 90.1844 67.159 88.5583 64.2645 85.6638C61.37 82.7693 59.7439 78.8435 59.7439 74.7501Z" fill="#9E9E9E"/>
<path fill-rule="evenodd" clip-rule="evenodd" d="M75.007 1.00806C71.9544 1.00806 69.4094 1.00806 67.3241 1.14525C65.1922 1.23111 63.0894 1.67159 61.1023 2.4486C58.8129 3.39585 56.7325 4.78483 54.9799 6.53621C53.2274 8.28759 51.837 10.3671 50.8882 12.6559C49.8935 15.0568 49.626 17.5948 49.5163 20.3525C49.504 21.3607 49.2365 22.3494 48.7387 23.2263C48.2408 24.1032 47.529 24.8396 46.6695 25.3669C45.7834 25.8493 44.7894 26.0992 43.7805 26.0932C42.7717 26.0872 41.7808 25.8255 40.9005 25.3326C38.4584 24.043 36.1261 23.0072 33.5468 22.6642C31.0907 22.3411 28.5949 22.505 26.2021 23.1464C23.8093 23.7879 21.5662 24.8944 19.601 26.4027C17.9368 27.7368 16.5064 29.3387 15.3686 31.1428C14.2024 32.8852 12.9265 35.0871 11.4037 37.7281L11.2322 38.0299C9.70247 40.6709 8.43342 42.8729 7.51422 44.7525C6.55386 46.7143 5.79929 48.6488 5.5249 50.789C4.87048 55.7485 6.21279 60.7649 9.25658 64.7348C10.8412 66.7996 12.906 68.3019 15.2383 69.7698C16.1069 70.2849 16.8307 71.012 17.3418 71.883C17.8529 72.754 18.1346 73.7404 18.1605 74.75C18.1346 75.7595 17.8529 76.746 17.3418 77.617C16.8307 78.488 16.1069 79.2151 15.2383 79.7301C12.906 81.1981 10.848 82.7004 9.25658 84.7652C7.74825 86.7304 6.64176 88.9734 6.0003 91.3662C5.35884 93.7591 5.19497 96.2548 5.51804 98.711C5.79929 100.851 6.547 102.786 7.50736 104.748C8.43342 106.627 9.70247 108.829 11.2322 111.47L11.4037 111.772C12.9265 114.413 14.2024 116.615 15.3686 118.357C16.5828 120.161 17.8861 121.787 19.601 123.09C21.5657 124.6 23.8085 125.708 26.2014 126.35C28.5942 126.993 31.0902 127.158 33.5468 126.836C36.1261 126.493 38.4584 125.464 40.9005 124.167C41.7799 123.676 42.7696 123.415 43.7771 123.409C44.7847 123.403 45.7774 123.652 46.6626 124.133C47.5291 124.654 48.2472 125.388 48.7481 126.267C49.249 127.145 49.5159 128.137 49.5231 129.148C49.626 131.905 49.8935 134.443 50.8951 136.844C51.8423 139.134 53.2313 141.214 54.9827 142.967C56.7341 144.719 58.8135 146.109 61.1023 147.058C63.0916 147.881 65.1495 148.204 67.3241 148.348C69.4094 148.492 71.9544 148.492 75.007 148.492H75.3499C78.4025 148.492 80.9475 148.492 83.0328 148.355C85.2142 148.204 87.2653 147.881 89.2546 147.051C91.544 146.104 93.6244 144.715 95.377 142.964C97.1295 141.212 98.5199 139.133 99.4687 136.844C100.463 134.443 100.731 131.905 100.841 129.148C100.852 128.138 101.119 127.148 101.617 126.27C102.114 125.392 102.827 124.654 103.687 124.126C104.574 123.645 105.568 123.396 106.577 123.403C107.586 123.411 108.577 123.673 109.456 124.167C111.899 125.457 114.231 126.493 116.81 126.829C121.77 127.483 126.786 126.141 130.756 123.097C132.471 121.78 133.774 120.161 134.988 118.357C136.154 116.615 137.43 114.413 138.953 111.772L139.125 111.47C140.654 108.829 141.923 106.627 142.843 104.748C143.803 102.786 144.558 100.844 144.832 98.711C145.486 93.7515 144.144 88.7351 141.1 84.7652C139.516 82.7004 137.451 81.1981 135.119 79.7301C134.25 79.2151 133.526 78.488 133.015 77.617C132.504 76.746 132.222 75.7595 132.196 74.75C132.196 72.843 133.239 70.9497 135.119 69.7698C137.451 68.3019 139.509 66.7996 141.1 64.7348C142.609 62.7696 143.715 60.5266 144.357 58.1337C144.998 55.7409 145.162 53.2452 144.839 50.789C144.516 48.6803 143.843 46.6402 142.85 44.7525C141.678 42.4735 140.436 40.2316 139.125 38.0299L138.953 37.7281C137.7 35.4924 136.378 33.2962 134.988 31.1428C133.85 29.3412 132.419 27.7416 130.756 26.4096C128.791 24.9 126.548 23.7923 124.156 23.1497C121.763 22.507 119.267 22.3421 116.81 22.6642C114.231 23.0072 111.899 24.0361 109.456 25.3326C108.577 25.8243 107.587 26.0853 106.58 26.0913C105.572 26.0973 104.58 25.8481 103.694 25.3669C102.832 24.8413 102.118 24.1056 101.617 23.2286C101.117 22.3516 100.847 21.362 100.834 20.3525C100.731 17.5948 100.463 15.0568 99.4618 12.6559C98.5146 10.3664 97.1256 8.28602 95.3742 6.53346C93.6228 4.78091 91.5434 3.39053 89.2546 2.44174C87.2653 1.61857 85.2074 1.29616 83.0328 1.15211C80.9475 1.00806 78.4025 1.00806 75.3499 1.00806H75.007ZM65.0398 11.9493C65.568 11.7298 66.3706 11.5309 68.0238 11.4142C69.7181 11.2976 71.9132 11.2976 75.1785 11.2976C78.4437 11.2976 80.6388 11.2976 82.3331 11.4142C83.9863 11.5309 84.7889 11.7298 85.3171 11.9493C87.423 12.8205 89.09 14.4874 89.9611 16.5933C90.2355 17.2519 90.4619 18.2877 90.5511 20.7366C90.7569 26.1695 93.5625 31.4035 98.5426 34.2777C103.523 37.1519 109.456 36.9667 114.265 34.4286C116.433 33.283 117.441 32.9606 118.155 32.8714C120.408 32.5736 122.688 33.1831 124.493 34.5658C124.946 34.9156 125.522 35.5124 126.448 36.8844C127.401 38.2975 128.499 40.1976 130.132 43.0238C131.764 45.85 132.855 47.757 133.603 49.2799C134.337 50.7684 134.563 51.5642 134.632 52.1335C134.929 54.3874 134.32 56.6673 132.937 58.4719C132.498 59.0412 131.716 59.7547 129.645 61.058C125.035 63.9528 121.907 69.0016 121.907 74.75C121.907 80.4984 125.035 85.5472 129.645 88.442C131.716 89.7453 132.498 90.4587 132.937 91.0281C134.323 92.8322 134.927 95.1096 134.632 97.3665C134.563 97.9358 134.33 98.7384 133.603 100.22C132.855 101.75 131.764 103.65 130.132 106.476C128.499 109.302 127.395 111.203 126.448 112.616C125.522 113.988 124.946 114.584 124.493 114.934C122.688 116.317 120.408 116.926 118.155 116.629C117.441 116.539 116.44 116.217 114.265 115.071C109.463 112.533 103.523 112.341 98.5426 115.215C93.5625 118.09 90.7569 123.33 90.5511 128.763C90.4619 131.212 90.2355 132.248 89.9611 132.907C89.5302 133.948 88.8982 134.894 88.1014 135.691C87.3045 136.488 86.3584 137.12 85.3171 137.551C84.7889 137.77 83.9863 137.969 82.3331 138.086C80.6388 138.202 78.4437 138.202 75.1785 138.202C71.9132 138.202 69.7181 138.202 68.0238 138.086C66.3706 137.969 65.568 137.77 65.0398 137.551C63.9985 137.12 63.0524 136.488 62.2555 135.691C61.4587 134.894 60.8267 133.948 60.3958 132.907C60.1214 132.248 59.895 131.212 59.8058 128.763C59.6 123.33 56.7944 118.097 51.8143 115.222C46.8341 112.348 40.9005 112.533 36.0918 115.071C33.9241 116.217 32.9157 116.539 32.2023 116.629C29.9485 116.926 27.6686 116.317 25.864 114.934C25.4112 114.584 24.835 113.988 23.9089 112.616C22.6185 110.607 21.39 108.56 20.2253 106.476C18.5927 103.65 17.502 101.743 16.7543 100.22C16.0203 98.7316 15.7939 97.9358 15.7253 97.3665C15.4275 95.1126 16.0369 92.8327 17.4196 91.0281C17.8587 90.4587 18.6407 89.7453 20.7123 88.442C25.322 85.5472 28.4501 80.4984 28.4501 74.75C28.4501 69.0016 25.322 63.9528 20.7123 61.058C18.6407 59.7547 17.8587 59.0412 17.4196 58.4719C16.0369 56.6673 15.4275 54.3874 15.7253 52.1335C15.7939 51.5642 16.0271 50.7616 16.7543 49.2799C17.502 47.7502 18.5927 45.85 20.2253 43.0238C21.8579 40.1976 22.9623 38.2975 23.9089 36.8844C24.835 35.5124 25.4112 34.9156 25.864 34.5658C27.6686 33.1831 29.9485 32.5736 32.2023 32.8714C32.9157 32.9606 33.9173 33.283 36.0918 34.4286C40.8936 36.9667 46.8341 37.1588 51.8143 34.2777C56.7944 31.4035 59.6 26.1695 59.8058 20.7366C59.895 18.2877 60.1214 17.2519 60.3958 16.5933C61.2669 14.4874 62.9339 12.8205 65.0398 11.9493Z" fill="#9E9E9E"/>
</svg>
