<svg width="150" height="150" viewBox="0 0 150 150" fill="none" xmlns="http://www.w3.org/2000/svg">
<g clip-path="url(#clip0_12_119)">
<path fill-rule="evenodd" clip-rule="evenodd" d="M112.469 42.8308C112.571 42.0889 112.494 41.3333 112.244 40.6273L112.122 40.0365C111.776 38.5997 111.207 37.2264 110.434 35.9669C109.571 34.5604 108.352 33.3414 105.914 30.9033L81.6278 6.60762C79.1991 4.16961 77.9801 2.9506 76.5642 2.07854C75.1342 1.20287 73.559 0.589976 71.9132 0.268787C71.2072 0.0188457 70.4516 -0.0583235 69.7097 0.0437402C68.6688 0.0156093 67.4029 0.0156093 65.7244 0.0156093H45.0013C29.248 0.0156093 21.3714 0.0156093 15.3701 3.08188C10.0897 5.78843 5.79284 10.0853 3.08629 15.3657C0.0200198 21.3857 0.0200195 29.2342 0.0200195 44.9875V105C0.0200195 120.753 0.0200198 128.63 3.08629 134.631C5.79284 139.912 10.0897 144.209 15.3701 146.915C21.3901 149.981 29.248 149.981 45.0013 149.981H67.7217C71.4819 149.981 73.3667 145.077 70.9755 142.18C70.5858 141.695 70.0936 141.302 69.5343 141.03C68.9751 140.758 68.3625 140.612 67.7405 140.604H44.9545C36.9184 140.604 31.4516 140.595 27.232 140.248C23.1249 139.911 21.0151 139.31 19.5522 138.56C16.0236 136.762 13.1548 133.893 11.3568 130.365C10.6066 128.902 9.99711 126.802 9.66892 122.685C9.33135 118.465 9.32197 113.027 9.32197 104.963V44.95C9.32197 36.914 9.32197 31.4472 9.66892 27.2276C10.0065 23.1205 10.616 21.0106 11.3568 19.5478C13.1572 16.0221 16.0265 13.1527 19.5522 11.3524C21.0151 10.6022 23.1249 9.9927 27.2414 9.66451C31.4516 9.32694 36.8903 9.32694 44.9545 9.32694H65.5838V42.1463C65.5838 43.3898 66.0777 44.5823 66.957 45.4616C67.8363 46.3408 69.0288 46.8348 70.2723 46.8348H103.092V51.964C103.092 54.3083 105.033 56.1836 107.368 56.3993C110.04 56.6337 112.459 54.6365 112.459 51.9546V46.7692C112.459 45.1001 112.459 43.8342 112.412 42.784L112.469 42.8308ZM74.9608 13.1996L99.2471 37.486H74.9608V13.1996Z" fill="#9E9E9E"/>
<path fill-rule="evenodd" clip-rule="evenodd" d="M103.091 140.633C110.911 140.633 118.188 138.242 124.189 134.153L137.973 147.938C139.291 149.256 141.079 149.996 142.943 149.996C144.807 149.996 146.595 149.256 147.913 147.938C149.231 146.619 149.971 144.832 149.971 142.968C149.971 141.104 149.231 139.316 147.913 137.998L134.129 124.214C138.217 118.203 140.608 110.992 140.608 103.116C140.608 82.3926 123.823 65.6078 103.1 65.6078C82.3772 65.6078 65.5924 82.3926 65.5924 103.116C65.5924 123.839 82.3772 140.624 103.1 140.624L103.091 140.633ZM103.091 131.256C118.657 131.256 131.222 118.691 131.222 103.125C131.222 87.5593 118.657 74.9941 103.091 74.9941C87.5251 74.9941 74.96 87.5593 74.96 103.125C74.96 118.691 87.5251 131.256 103.091 131.256Z" fill="#9E9E9E"/>
</g>
<defs>
<clipPath id="clip0_12_119">
<rect width="150" height="150" fill="white"/>
</clipPath>
</defs>
</svg>
