<svg width="1533" height="514" viewBox="0 0 1533 514" fill="none" xmlns="http://www.w3.org/2000/svg">
<path fill-rule="evenodd" clip-rule="evenodd" d="M257 514C398.937 514 514 398.937 514 257C514 115.063 398.937 0 257 0C115.063 0 0 115.063 0 257C0 363.082 64.2722 454.152 156 493.394V139H285.43C302.343 139 318.253 142.297 333.16 148.89C348.353 155.483 361.54 164.37 372.72 175.55C383.9 186.73 392.787 199.63 399.38 214.25C405.973 228.87 409.27 244.207 409.27 260.26V262.41C408.983 279.037 405.543 294.66 398.95 309.28C392.643 323.9 383.9 336.657 372.72 347.55C361.827 358.443 348.927 367.043 334.02 373.35C319.4 379.657 303.777 382.81 287.15 382.81H255.76C243.72 382.81 233.687 386.823 225.66 394.85C217.92 402.877 214.05 412.623 214.05 424.09V510.427C228.017 512.777 242.365 514 257 514ZM252.75 202.21C260.49 198.77 268.803 197.05 277.69 197.05H287.15C295.75 197.05 303.92 198.77 311.66 202.21C319.4 205.363 326.137 209.807 331.87 215.54C337.603 221.273 342.19 228.01 345.63 235.75C349.07 243.203 350.79 251.23 350.79 259.83C350.79 268.717 349.07 277.173 345.63 285.2C342.19 292.94 337.46 299.677 331.44 305.41C325.707 311.143 318.827 315.73 310.8 319.17C303.06 322.61 294.747 324.33 285.86 324.33H277.69C268.803 324.33 260.49 322.753 252.75 319.6C245.01 316.16 238.273 311.573 232.54 305.84C226.807 300.107 222.22 293.37 218.78 285.63C215.627 277.89 214.05 269.577 214.05 260.69C214.05 251.803 215.627 243.49 218.78 235.75C222.22 228.01 226.807 221.273 232.54 215.54C238.273 209.807 245.01 205.363 252.75 202.21Z" fill="#7263C1"/>
<path d="M662.5 171.5C708 171.5 735.5 194.5 735.5 232.5C735.5 270.5 708 293.5 662.5 293.5H619.25V346.5H594.25V171.5H662.5ZM661.75 271.75C693.75 271.75 710.5 257.5 710.5 232.5C710.5 207.5 693.75 193.25 661.75 193.25H619.25V271.75H661.75ZM778.531 188.5C769.281 188.5 762.281 181.75 762.281 173C762.281 164.25 769.281 157.25 778.531 157.25C787.781 157.25 794.781 164 794.781 172.5C794.781 181.5 788.031 188.5 778.531 188.5ZM766.531 346.5V214H790.531V346.5H766.531ZM903.355 321.5L910.855 338.75C903.605 345 892.605 348 881.855 348C855.105 348 839.855 333.25 839.855 306.5V233.75H817.355V214H839.855V185H863.855V214H901.855V233.75H863.855V305.5C863.855 319.75 871.355 327.75 884.605 327.75C891.605 327.75 898.355 325.5 903.355 321.5ZM993.227 348C952.477 348 923.227 319.75 923.227 280.25C923.227 240.75 952.477 212.75 993.227 212.75C1016.98 212.75 1036.73 222.5 1047.23 241L1028.98 252.75C1020.48 239.75 1007.48 233.75 992.977 233.75C966.977 233.75 947.477 252 947.477 280.25C947.477 309 966.977 327 992.977 327C1007.48 327 1020.48 321 1028.98 308L1047.23 319.5C1036.73 338 1016.98 348 993.227 348ZM1147.34 212.75C1179.59 212.75 1202.34 231.25 1202.34 270.25V346.5H1178.34V273C1178.34 247 1165.34 234.25 1142.59 234.25C1117.09 234.25 1100.59 249.5 1100.59 278.25V346.5H1076.59V161H1100.59V232.75C1110.59 220 1127.09 212.75 1147.34 212.75ZM1252.51 348C1243.26 348 1235.51 340.75 1235.51 330.75C1235.51 320.75 1243.26 313.75 1252.51 313.75C1261.51 313.75 1269.01 320.75 1269.01 330.75C1269.01 340.75 1261.51 348 1252.51 348ZM1315.4 188.5C1306.15 188.5 1299.15 181.75 1299.15 173C1299.15 164.25 1306.15 157.25 1315.4 157.25C1324.65 157.25 1331.65 164 1331.65 172.5C1331.65 181.5 1324.9 188.5 1315.4 188.5ZM1303.4 346.5V214H1327.4V346.5H1303.4ZM1429.97 348C1390.22 348 1360.97 319.75 1360.97 280.25C1360.97 240.75 1390.22 212.75 1429.97 212.75C1469.72 212.75 1498.72 240.75 1498.72 280.25C1498.72 319.75 1469.72 348 1429.97 348ZM1429.97 327C1455.47 327 1474.47 308.5 1474.47 280.25C1474.47 252 1455.47 233.75 1429.97 233.75C1404.47 233.75 1385.22 252 1385.22 280.25C1385.22 308.5 1404.47 327 1429.97 327Z" fill="black"/>
</svg>
