<svg width="150" height="150" viewBox="0 0 150 150" fill="none" xmlns="http://www.w3.org/2000/svg">
<g clip-path="url(#clip0_4_2)">
<path d="M43.4444 47.4118H106.556M43.4444 78.9412H90.7778M51.3333 118.353H27.6667C21.3899 118.353 15.3702 115.862 10.9318 111.427C6.49345 106.992 4 100.977 4 94.7059V31.6471C4 25.3755 6.49345 19.3607 10.9318 14.9261C15.3702 10.4914 21.3899 8 27.6667 8H122.333C128.61 8 134.63 10.4914 139.068 14.9261C143.507 19.3607 146 25.3755 146 31.6471V94.7059C146 100.977 143.507 106.992 139.068 111.427C134.63 115.862 128.61 118.353 122.333 118.353H98.6667L75 142L51.3333 118.353Z" stroke="#9E9E9E" stroke-width="9" stroke-linecap="round" stroke-linejoin="round"/>
</g>
<defs>
<clipPath id="clip0_4_2">
<rect width="150" height="150" fill="white"/>
</clipPath>
</defs>
</svg>
