<svg width="150" height="150" viewBox="0 0 150 150" fill="none" xmlns="http://www.w3.org/2000/svg">
<g clip-path="url(#clip0_25_213)">
<path d="M119.484 48.1875C118.592 60.5791 109.399 70.125 99.375 70.125C89.3508 70.125 80.1431 60.5822 79.2656 48.1875C78.3516 35.2962 87.3002 26.25 99.375 26.25C111.45 26.25 120.398 35.5308 119.484 48.1875Z" stroke="#9E9E9E" stroke-width="9" stroke-linecap="round" stroke-linejoin="round"/>
<path d="M99.375 89.625C79.5185 89.625 60.4238 99.4877 55.6402 118.695C55.0064 121.236 56.5999 123.75 59.2111 123.75H139.542C142.153 123.75 143.738 121.236 143.113 118.695C138.329 99.18 119.235 89.625 99.375 89.625Z" stroke="#9E9E9E" stroke-width="9" stroke-miterlimit="10"/>
<path d="M57.9375 53.6536C57.2245 63.5498 49.7962 71.3438 41.789 71.3438C33.7819 71.3438 26.3414 63.5529 25.6406 53.6536C24.9124 43.3582 32.1426 36 41.789 36C51.4354 36 58.6657 43.5471 57.9375 53.6536Z" stroke="#9E9E9E" stroke-width="9" stroke-linecap="round" stroke-linejoin="round"/>
<path d="M59.7657 90.2344C54.2661 87.7146 48.2089 86.7457 41.7891 86.7457C25.9454 86.7457 10.6805 94.6219 6.85669 109.963C6.35396 111.992 7.62755 114 9.71161 114H43.9219" stroke="#9E9E9E" stroke-width="9" stroke-miterlimit="10" stroke-linecap="round"/>
</g>
<defs>
<clipPath id="clip0_25_213">
<rect width="150" height="150" fill="white"/>
</clipPath>
</defs>
</svg>
