<svg width="200" height="200" viewBox="0 0 200 200" fill="none" xmlns="http://www.w3.org/2000/svg">
<rect x="1" width="199" height="199" rx="25" fill="white" fill-opacity="0.4"/>
<path d="M102.823 33.9992L117.204 67.8198C118.655 71.2337 121.801 73.6282 125.478 74.119L161.906 78.9806C163.185 79.1513 163.666 80.7513 162.692 81.5988L134.97 105.727C132.172 108.162 130.867 111.893 131.536 115.542L138.169 151.689C138.402 152.959 137.029 153.911 135.922 153.246L104.409 134.337C101.228 132.429 97.2761 132.34 94.0129 134.105L61.6844 151.583C60.5488 152.197 59.2196 151.185 59.5093 149.927L67.7545 114.113C68.5868 110.498 67.4498 106.712 64.7634 104.154L38.1502 78.8089C37.2153 77.9186 37.767 76.3418 39.053 76.2285L75.6621 73.003C79.3574 72.6774 82.6067 70.4261 84.2097 67.0807L100.09 33.938C100.648 32.7738 102.318 32.8112 102.823 33.9992Z" stroke="white" stroke-width="9"/>
</svg>
